<?xml version="1.0" encoding="UTF-8"?>
<svg version="1.1" viewBox="0 0 1098.8 1679.6" xmlns="http://www.w3.org/2000/svg">
<defs>
<clipPath id="ab">
<path transform="translate(-686.51 -822.74)" d="m0 1259.7h824.1v-1259.7h-824.1z"/>
</clipPath>
<clipPath id="am">
<path transform="translate(-472.17 -1076.6)" d="m0 1259.7h824.1v-1259.7h-824.1z"/>
</clipPath>
<clipPath id="aq">
<path transform="translate(-554.03 -923.77)" d="m0 1259.7h824.1v-1259.7h-824.1z"/>
</clipPath>
<clipPath id="ar">
<path transform="translate(-597.69 -893.75)" d="m0 1259.7h824.1v-1259.7h-824.1z"/>
</clipPath>
<clipPath id="w">
<path transform="translate(-400.94 -761.34)" d="m0 1259.7h824.1v-1259.7h-824.1z"/>
</clipPath>
<clipPath id="x">
<path transform="translate(-269.08 -503.56)" d="m0 1259.7h824.1v-1259.7h-824.1z"/>
</clipPath>
<clipPath id="y">
<path transform="translate(-577.86 -503.56)" d="m0 1259.7h824.1v-1259.7h-824.1z"/>
</clipPath>
<clipPath id="z">
<path transform="translate(-584.78 -536.3)" d="m0 1259.7h824.1v-1259.7h-824.1z"/>
</clipPath>
<clipPath id="aa">
<path transform="translate(-94.745 -1207.6)" d="m0 1259.7h824.1v-1259.7h-824.1z"/>
</clipPath>
<clipPath id="ac">
<path transform="translate(-52.386 -1141.7)" d="m0 1259.7h824.1v-1259.7h-824.1z"/>
</clipPath>
<clipPath id="ad">
<path transform="translate(-327.99 -956.62)" d="m0 1259.7h824.1v-1259.7h-824.1z"/>
</clipPath>
<clipPath id="ae">
<path transform="translate(-569.87 -1043.9)" d="m0 1259.7h824.1v-1259.7h-824.1z"/>
</clipPath>
<clipPath id="af">
<path transform="translate(-171.67 -275.5)" d="m0 1259.7h824.1v-1259.7h-824.1z"/>
</clipPath>
<clipPath id="ag">
<path transform="translate(-347.43 -325.13)" d="m0 1259.7h824.1v-1259.7h-824.1z"/>
</clipPath>
<clipPath id="ah">
<path transform="translate(-585.96 -275.5)" d="m0 1259.7h824.1v-1259.7h-824.1z"/>
</clipPath>
<clipPath id="ai">
<path transform="translate(-761.72 -325.13)" d="m0 1259.7h824.1v-1259.7h-824.1z"/>
</clipPath>
<clipPath id="aj">
<path transform="translate(-154.06 -231.02)" d="m0 1259.7h824.1v-1259.7h-824.1z"/>
</clipPath>
<clipPath id="ak">
<path transform="translate(-289.48 -162.02)" d="m0 1259.7h824.1v-1259.7h-824.1z"/>
</clipPath>
<clipPath id="al">
<path transform="translate(-464.15 -162.02)" d="m0 1259.7h824.1v-1259.7h-824.1z"/>
</clipPath>
<clipPath id="an">
<path transform="translate(-664.2 -231.02)" d="m0 1259.7h824.1v-1259.7h-824.1z"/>
</clipPath>
<clipPath id="ao">
<path transform="translate(-804.76 -231.02)" d="m0 1259.7h824.1v-1259.7h-824.1z"/>
</clipPath>
<clipPath id="ap">
<path transform="translate(-318.99 -1147.1)" d="m0 1259.7h824.1v-1259.7h-824.1z"/>
</clipPath>
</defs>
<g fill="currentColor">
<path transform="matrix(1.3333 0 0 -1.3333 915.35 582.64)" d="m0 0c20.084-11.467 39.977-10.942 56.08 1.947 20.349 16.281 32.196 52.788 14.069 88.379-6.285 12.334-14.922 19.753-25.679 22.053-16.684 3.56-35.438-5.321-46.833-12.222l-4.393 10.136c13.004 7.689 33.798 16.964 53.471 12.766 14.148-3.012 25.303-12.358 33.156-27.779 18.211-35.753 10.915-79.543-16.972-101.86-10.427-8.345-22.292-12.482-34.714-12.482-10.072 0-20.514 2.72-30.865 8.12z" clip-path="url(#ab)"/>
<path transform="matrix(1.3333 0 0 -1.3333 629.56 244.2)" d="m0 0c-117.36 0-212.83-95.477-212.83-212.83 0-117.36 95.474-212.83 212.83-212.83s212.83 95.476 212.83 212.83c0 117.36-95.474 212.83-212.83 212.83m0-436.58c-123.37 0-223.75 100.37-223.75 223.75s100.38 223.75 223.75 223.75 223.75-100.37 223.75-223.75-100.38-223.75-223.75-223.75" clip-path="url(#am)"/>
<path transform="matrix(1.3333 0 0 -1.3333 738.7 447.93)" d="m0 0c-30.094 0-54.572-24.481-54.572-54.573s24.478-54.574 54.572-54.574 54.572 24.482 54.572 54.574-24.478 54.573-54.572 54.573m0-120.06c-36.11 0-65.491 29.378-65.491 65.488 0 36.111 29.381 65.487 65.491 65.487s65.491-29.376 65.491-65.487c0-36.11-29.381-65.488-65.491-65.488" clip-path="url(#aq)"/>
<path transform="matrix(1.3333 0 0 -1.3333 796.91 487.96)" d="m0 0c0-16.577-21.99-30.015-49.116-30.015-27.125 0-49.115 13.438-49.115 30.015s27.447 35.472 54.573 35.472c27.125 0 43.658-18.895 43.658-35.472" clip-path="url(#ar)"/>
<path transform="matrix(1.3333 0 0 -1.3333 534.59 664.51)" d="m0 0c-19.319 0-30.702 11.056-30.869 11.223-2.129 2.131-2.129 5.587 0 7.718 2.124 2.12 5.562 2.132 7.695 0.023 0.835-0.811 19.551-18.377 51.009 0.78 2.57 1.565 5.933 0.751 7.501-1.823 1.568-2.575 0.751-5.933-1.823-7.501-12.798-7.792-24.102-10.42-33.513-10.42" clip-path="url(#w)"/>
<path transform="matrix(1.3333 0 0 -1.3333 358.77 1008.2)" d="m0 0h470.57c1.377 0 2.639 0.552 3.548 1.552 0.891 0.978 1.313 2.249 1.192 3.58-1.892 20.148-8.664 61.059-32.78 108.67-13.261 26.186-37.748 42.889-72.777 49.643-21.115 4.068-39.956 3.11-47.016 2.523-6.74-13.685-38.708-66.622-129.94-67.176-0.385-3e-3 -0.775-5e-3 -1.155-5e-3 -46.367 0-71.827 16.982-85.047 31.296-6.934 7.507-11.308 15.049-14.008 20.987zm470.57-10.914h-480.32c-1.976 0-3.795 1.067-4.764 2.79-0.965 1.723-0.923 3.833 0.111 5.52l103.69 169.18c1.178 1.92 3.404 2.92 5.631 2.516 2.212-0.403 3.952-2.122 4.378-4.327 0.473-2.361 12.014-55.054 92.315-55.054 0.376 0 0.742 0 1.123 2e-3 94.866 0.575 120.24 60.841 121.27 63.406 0.737 1.827 2.407 3.131 4.36 3.386 1.002 0.132 24.769 3.138 53.143-2.278 38.137-7.275 66.066-26.465 80.765-55.487 24.927-49.222 31.941-91.666 33.903-112.58 0.408-4.363-1.044-8.718-3.985-11.949-2.964-3.252-7.199-5.116-11.619-5.116" clip-path="url(#x)"/>
<path transform="matrix(1.3333 0 0 -1.3333 770.47 1008.2)" d="m0 0h65.402l54.971 133.14c-6.211 6.663-26.347 25.614-57.086 29.032zm72.703-10.914h-88.678l72.031 184.59 3.984-0.26c44.669-2.904 69.911-34.512 70.964-35.855l1.962-2.505z" clip-path="url(#y)"/>
<path transform="matrix(1.3333 0 0 -1.3333 779.7 964.56)" d="m0 0h-216.3l9.777-38.201 191.61-5.77z" clip-path="url(#z)"/>
<path transform="matrix(1.3333 0 0 -1.3333 126.33 69.507)" d="m0 0c-21.323 0-38.671-17.348-38.671-38.671v-632.11c0-21.323 17.348-38.671 38.671-38.671h632.11c21.323 0 38.667 17.348 38.667 38.671v632.11c0 21.323-17.344 38.671-38.667 38.671zm632.11-720.36h-632.11c-27.344 0-49.59 22.243-49.59 49.585v632.11c0 27.342 22.246 49.585 49.59 49.585h632.11c27.34 0 49.586-22.243 49.586-49.585v-632.11c0-27.342-22.246-49.585-49.586-49.585" clip-path="url(#aa)"/>
<path transform="matrix(1.3333 0 0 -1.3333 69.848 157.42)" d="m0 0-9e-3 10.914 293.22 0.236c4.346 0.033 8.373 1.847 11.3 5.109 2.922 3.261 4.29 7.456 3.849 11.814l-4.146 41.138 10.863 1.094 4.147-41.136c0.742-7.341-1.661-14.705-6.591-20.198-4.931-5.496-11.991-8.68-19.375-8.736z" clip-path="url(#ac)"/>
<path transform="matrix(1.3333 0 0 -1.3333 437.32 404.13)" d="m0 0s18.056-4.904 45.902-6.881c57.17-4.06 155.61 4.213 223.79 92.568 0 0-9.088 65.601-157.28 61.963s-157.28-144.01-157.28-144.01 2.556 2.967 44.871-3.638" clip-path="url(#ad)"/>
<path transform="matrix(1.3333 0 0 -1.3333 759.82 287.71)" d="m0 0s-13.16-108.41 113.75-125.76c0 0 26.386 46.02-18.485 94.226-52.003 55.868-80.163 56.998-95.261 31.531" clip-path="url(#ae)"/>
<path transform="matrix(1.3333 0 0 -1.3333 228.89 1312.3)" d="m0 0v94.003l-47.002-78.821h-19.268l-45.833 79.113v-94.295h-41.161v157.06h47.586l50.211-90.791 53.426 90.791h42.623l0.58-157.06z" clip-path="url(#af)"/>
<path transform="matrix(1.3333 0 0 -1.3333 463.24 1246.1)" d="m0 0v16.056h-31.235c-21.314 0-28.026-7.883-28.026-18.391 0-11.386 9.634-18.976 25.688-18.976 15.181 0 28.318 7.006 33.573 21.311m45.54 39.995v-89.624h-42.622v19.56c-8.466-14.305-24.812-21.896-47.874-21.896-36.783 0-58.681 20.435-58.681 47.586 0 27.734 19.56 47 67.438 47h36.199c0 19.56-11.675 30.945-36.199 30.945-16.642 0-33.865-5.545-45.253-14.595l-16.346 31.82c17.223 12.262 42.623 18.976 67.727 18.976 47.878 0 75.611-22.188 75.611-69.772" clip-path="url(#ag)"/>
<path transform="matrix(1.3333 0 0 -1.3333 781.28 1312.3)" d="m0 0v94.003l-47.002-78.821h-19.268l-45.833 79.113v-94.295h-41.161v157.06h47.586l50.211-90.791 53.426 90.791h42.623l0.58-157.06z" clip-path="url(#ah)"/>
<path transform="matrix(1.3333 0 0 -1.3333 1015.6 1246.1)" d="m0 0v16.056h-31.235c-21.314 0-28.026-7.883-28.026-18.391 0-11.386 9.634-18.976 25.688-18.976 15.181 0 28.318 7.006 33.573 21.311m45.54 39.995v-89.624h-42.622v19.56c-8.466-14.305-24.812-21.896-47.874-21.896-36.783 0-58.681 20.435-58.681 47.586 0 27.734 19.56 47 67.438 47h36.199c0 19.56-11.675 30.945-36.199 30.945-16.642 0-33.865-5.545-45.253-14.595l-16.345 31.82c17.222 12.262 42.622 18.976 67.726 18.976 47.878 0 75.611-22.188 75.611-69.772" clip-path="url(#ai)"/>
<path transform="matrix(1.3333 0 0 -1.3333 205.41 1371.6)" d="m0 0v-137.99h-40.011v105.16h-57.453v-105.16h-39.756v137.99z" clip-path="url(#aj)"/>
<path transform="matrix(1.3333 0 0 -1.3333 385.97 1463.6)" d="m0 0c0 23.853-15.135 38.216-35.141 38.216s-35.396-14.363-35.396-38.216c0-23.856 15.39-38.219 35.396-38.219s35.141 14.363 35.141 38.219m-111.06 0c0 41.551 32.066 71.047 75.923 71.047 43.861 0 75.667-29.496 75.667-71.047s-31.806-71.05-75.667-71.05c-43.857 0-75.923 29.499-75.923 71.05" clip-path="url(#ak)"/>
<path transform="matrix(1.3333 0 0 -1.3333 618.86 1463.6)" d="m0 0c0 23.853-15.131 38.216-35.136 38.216-20.011 0-35.141-14.363-35.141-38.216 0-23.856 15.13-38.219 35.141-38.219 20.005 0 35.136 14.363 35.136 38.219m40.526 0c0-43.349-30.011-71.05-68.737-71.05-17.186 0-31.296 5.388-41.552 16.673v-64.379h-40.016v187.75h38.217v-15.901c10.005 12.056 24.88 17.953 43.351 17.953 38.726 0 68.737-27.7 68.737-71.047" clip-path="url(#al)"/>
<path transform="matrix(1.3333 0 0 -1.3333 885.61 1371.6)" d="m0 0-62.327-146.46c-13.34-33.344-32.321-43.347-57.197-43.347-14.11 0-29.496 4.618-38.476 12.568l14.62 28.471c6.156-5.385 14.621-8.72 22.571-8.72 11.03 0 17.186 4.872 22.571 17.185l0.515 1.283-59.762 139.02h41.296l38.727-93.618 38.986 93.618z" clip-path="url(#an)"/>
<path transform="matrix(1.3333 0 0 -1.3333 1073 1371.6)" d="m0 0v-137.99h-40.011v51.299c-10.776-5.388-23.341-8.72-38.477-8.72-36.421 0-56.427 15.9-56.427 52.067v43.346h40.012v-40.781c0-17.186 9.49-23.854 25.396-23.854 10.515 0 20.515 2.308 29.496 6.668v57.967z" clip-path="url(#ao)"/>
<path transform="matrix(1.3333 0 0 -1.3333 425.32 150.15)" d="m0 0-268.41 0.408 1.923-446.04c24.636-21.374 102.8-5.278 105.31-29.09 1.185-11.248-18.127-20.025-36.299-24.734 26.104 4.455 64.673 8.355 67.955-11.928 3.772-23.299-48.88-36.597-63.898-39.902 12.681 2.441 51.665 8.23 54.413-12.262 1.252-9.33-20.396-20.762-48.776-28.847 2.989 0.104 5.793 0.058 8.172-0.24 14.204-1.784 16.492-16.907-15.423-25.22-29.131-7.587-52.714-6.326-69.871-2.704-0.234 1.038-0.427 2.087-0.574 3.145 2.575-20.494 24.318-37.054 45.212-37.054h345.94z" clip-path="url(#ap)"/>
</g>
</svg>